<svg version="1.2" xmlns="http://www.w3.org/2000/svg" viewBox="0 0 639 511" width="639" height="511">
	<title>logo-svg</title>
	<style>
		.s0 { fill: #3f63f5 } 
		.s1 { fill: #2c478b } 
	</style>
	<g id="Layer">
		<path id="Layer" fill-rule="evenodd" class="s0" d="m1006 154.8v225.4c0 4.8-3.2 7.9-7.9 7.9h-16.8c-4.7 0-7.8-3.1-7.8-7.9l-1.1-35.6c-18.3 27.8-50.3 48.2-95.4 48.2-65.5 0-116.9-53.4-116.9-125.3 0-71.8 50.3-125.2 115.8-125.2 47.2 0 79.7 21.4 96.5 47.6l1.1-35.1c0-4.7 3.1-7.8 7.8-7.8h16.8c4.7 0 7.9 3.1 7.9 7.8zm-35.7 112.7c0-52.4-35.1-91.2-87-91.2-47.2 0-86 38.8-86 91.2 0 52.5 38.8 91.2 86 91.2 51.9 0 87-38.2 87-91.2z"/>
		<path id="Layer" class="s0" d="m1185.3 151.7l-2.1 21c-0.6 5.7-3.7 7.3-9 6.2-3.6-0.5-8.4-1-13.6-1-50.8 0-73.9 40.9-74.4 75.5v126.8c0 4.8-3.2 7.9-7.9 7.9h-21.5c-4.7 0-7.9-3.1-7.9-7.9v-225.4c0-4.7 3.2-7.9 7.9-7.9h16.8c4.7 0 8.4 3.2 8.4 7.9l1.6 42.5c9.4-29.4 38.2-55.1 83.3-55.1 3.7 0 7.9 0 11.5 0.6 4.8 0.5 7.4 4.2 6.9 8.9z"/>
		<path id="Layer" class="s0" d="m1620.9 253.9v126.3c0 4.8-3.2 7.9-7.9 7.9h-21.5c-4.7 0-7.8-3.1-7.8-7.9v-121.6c0-49.8-25.2-82.3-68.2-82.3-44 0-72.3 36.7-72.3 79.7v124.2c0 4.8-3.2 7.9-7.9 7.9h-21.5c-4.7 0-7.9-3.1-7.9-7.9v-121.6c0-49.8-25.6-82.8-68.6-82.3-44.1 0-68.7 35.7-71.8 68.7l-0.6 135.2c0 4.8-3.1 7.9-7.8 7.9h-21.5c-4.8 0-7.9-3.1-7.9-7.9v-225.4c0-4.7 3.2-7.8 7.9-7.8h14.7c4.7 0 8.3 3.1 8.3 7.8l1.1 37.2c13.6-27.2 44.5-49.8 83.3-49.8 43 0 74.5 21.5 89.7 56.1 12.6-29.3 44-56.1 86.5-56.1 61.9 0 101.7 44.6 101.7 111.7z"/>
		<path id="Layer" class="s0" d="m1657.3 194.3l-2.5-2.5c-2.4-2.8-2.4-5.7 0.4-8.6 7.8-7.8 15.7-19.7 15.7-28-0.8 0.4-2.5 0.9-4.6 0.9-10.2 0-18-9.1-18-20.2 0-12.7 9-21.8 22.1-21.8 14.8 0 23.1 10.3 23.1 25.1 0.4 22.6-11.1 43.6-28 55.9-2.9 2.5-5.7 2.1-8.2-0.8z"/>
		<path id="Layer" class="s0" d="m1709.4 368.2c-4.7-2.6-5.2-6.3-2.6-11l9.9-16.3c2.7-4.2 6.3-5.2 11.1-2.1 18.3 12.6 41.9 21.5 73.9 21.5 33.5 0 54.5-12.6 54.5-36.2 0-20.9-12.6-31.4-57.7-42.9-52.9-13.7-84.9-32-84.9-70.8 0-40.9 35.1-67.6 88.1-67.6 35.6 0 60.8 9.4 79.7 20.9 4.2 2.7 5.2 6.3 2.6 11l-8.9 15.2c-2.7 4.2-6.3 5.3-11 2.7-21.6-12.1-38.8-17.3-65.6-17.3-26.7 0-48.2 9.9-48.2 32.5 0 19.4 16.2 27.7 61.3 39.3 61.9 16.2 81.3 35.6 81.3 76 0 41.9-37.8 69.7-91.2 69.7-37.8 0-66.1-9.4-92.3-24.6z"/>
		<path id="Layer" class="s1" d="m1946.9 380.2v-358.5c0-4.7 3.1-7.9 7.8-7.9h21.5c4.7 0 7.9 3.2 7.9 7.9v358.5c0 4.8-3.1 7.9-7.9 7.9h-21.5c-4.7 0-7.8-3.1-7.8-7.9z"/>
		<path id="Layer" fill-rule="evenodd" class="s1" d="m2266.7 271.2c0 5.3-3.7 7.9-8.4 7.9h-189.3c5.3 48.2 43.5 81.8 95.4 81.8 30.4 0 50.4-10.5 66.1-21.5 4.2-3.2 7.9-3.2 10.5 1.5l8.9 14.2q3.9 6.3-1.6 11c-18.9 13.7-45.6 26.8-87.5 26.8-74.5 0-127.9-53-127.9-125.3 0-70.8 49.2-125.3 121.6-125.3 66 0 112.2 48.7 112.2 120.5 0 0 0 8.4 0 8.4zm-196.6-22.5h160.9v-1.1c-3.7-44.5-35.1-73.4-75.5-73.4-45 0-78.1 29.9-85.4 74.5z"/>
		<path id="Layer" class="s1" d="m2538.7 254.4v125.8c0 4.8-3.1 7.9-7.8 7.9h-21.5c-4.7 0-7.9-3.1-7.9-7.9v-121.1c0-50.8-29.9-83.3-74.4-82.8-48.2 0-73.4 35.7-77.1 68.7l-0.5 135.2c0 4.8-3.1 7.9-7.9 7.9h-21.5c-4.7 0-7.8-3.1-7.8-7.9v-225.4c0-4.7 3.1-7.8 7.8-7.8h14.7c4.7 0 8.4 3.1 8.4 7.8l1.1 37.2c13.6-27.2 45-49.8 89.1-49.8 62.9 0 105.3 44.6 105.3 112.2z"/>
		<path id="Layer" fill-rule="evenodd" class="s1" d="m2828.1 155.4v219.6c0 68.1-44.5 120-126.8 120-48.3 0-78.7-12.5-100.2-25.7-4.1-2.6-5.2-6.2-2.6-11l8.9-14.6c2.7-4.8 6.3-5.3 11-2.7 17.9 10.5 44.1 21.5 80.8 21.5 58.2 0 91.7-36.1 91.7-83.3v-30.9c-18.9 25.7-49.3 44.5-91.2 44.5-65.5 0-116.9-53.5-116.9-125.3 0-71.8 50.3-125.3 115.9-125.3 47.2 0 79.1 22 95.9 48.3l1-35.2c0-4.7 3.2-7.8 7.9-7.8h16.8c4.7 0 7.8 3.1 7.8 7.9zm-35.1 112.2c0-52.5-35.1-91.3-87-91.3-47.2 0-86 38.8-86 91.3 0 52.4 38.8 91.2 86 91.2 51.9-0.1 87-38.3 87-91.3z"/>
		<path id="Layer" class="s1" d="m2930.4 309.5v-132.1h-41.4c-4.8 0-7.9-3.2-7.9-7.9v-14.7c0-4.7 3.1-7.9 7.9-7.9h41.9v-74.9c0-4.7 3.1-7.9 7.9-7.9h20.4c4.7 0 7.9 3.2 7.9 7.9v74.9h93.3c4.7 0 7.8 3.2 7.8 7.9v14.7c0 4.7-3.1 7.9-7.8 7.9h-93.3v132.1c0 35.1 18.9 50.3 54 50.3 19.9 0 33-7.9 41.4-13.1 4.2-3.1 8.4-2.1 10.5 2.6l7.3 14.7c2.1 4.7 1.1 7.3-2.6 10.5-4.7 3.6-25.7 18.3-62.9 18.3-48.8 0-84.4-29.9-84.4-83.3z"/>
		<path id="Layer" class="s1" d="m3361.8 254.4v125.8c0 4.8-3.1 7.9-7.8 7.9h-21.5c-4.7 0-7.9-3.1-7.9-7.9v-121.1c0-49.8-29.9-83.3-74.4-82.8-51.4 0-77.1 41.4-77.6 75.5v128.4c0 4.8-3.2 7.9-7.9 7.9h-21.5c-4.7 0-7.8-3.1-7.8-7.9v-358.5c0-4.8 3.1-7.9 7.8-7.9h20.5c4.7 0 7.8 3.1 7.8 7.9v165.6c14.2-24.6 43.5-45.1 85-45.1 62.9 0 105.3 44.6 105.3 112.2z"/>
		<path id="Layer" class="s1" d="m443.4 452.9c43.6-7.5 76.5-45.6 76.5-90.8v-290.2c-43.6 7.5-76.5 45.6-76.5 90.8z"/>
		<path id="Layer" class="s1" d="m621.1 409.3c-3.2-16.2-15.3-30.3-31.6-33q-3.1-0.5-6.2-0.5c-24.6 0-43.8 23.3-36.8 48.9 3.6 13.3 14.9 23.8 28.3 26.7 23.4 4.9 44.4-11.2 46.5-33.6q0.2-1.9 0.2-3.8 0-1.9-0.2-3.7z"/>
		<path id="Layer" fill-rule="evenodd" class="s0" d="m371.4 162.9c28 54.6 30.6 76.3 30.6 99.5v188.1c-21.1-3.7-40.7-14.8-54.7-31.4l-9.6-11.4-11.9 9.1c-31.7 24.4-69.8 38.2-110.1 39.9-16.6 0.7-33.5-0.8-50.2-4.4-33.2-7.3-64.2-23.5-89.6-46.9-38.2-35.1-60.4-83-62.6-134.9q-0.1-4.1-0.1-8.2c0-14.1 1.5-28.3 4.5-42 14.3-65.1 62.6-121.5 132.1-144 17.2-5.6 35.2-7.9 53.3-8.4q2.3 0 4.6 0c13.7 0 27.4 1.4 42 4.5 33.5 7.4 64.6 23.7 90.1 47.3 13.1 12.2 23.4 27.3 31.6 43.2zm-48.1 126.6c19.2-86.4-56.4-162.1-142.8-142.8-43.6 9.8-78.8 44.9-88.5 88.5-19.3 86.4 56.4 162.1 142.8 142.8 43.6-9.7 78.7-44.9 88.5-88.5z"/>
	</g>
</svg>